<svg xmlns="http://www.w3.org/2000/svg" version="1.1" xmlns:xlink="http://www.w3.org/1999/xlink" xmlns:svgjs="http://svgjs.dev/svgjs" width="1440" height="560" preserveAspectRatio="none" viewBox="0 0 1440 560"><g mask="url(&quot;#SvgjsMask1000&quot;)" fill="none"><rect width="1440" height="560" x="0" y="0" fill="#0e2a47"></rect><path d="M0 159.11L10 171.89L20 181.73L30 197.5L40 166.69L50 186.37L60 253.86L70 207.69L80 172.61L90 125.12L100 177.28L110 170.28L120 141.19L130 207.13L140 197.99L150 157.47L160 179.01L170 211.67L180 178.6L190 236.19L200 194.11L210 226.58L220 270.3L230 279.99L240 234.18L250 262.07L260 236.94L270 261.31L280 314.01L290 356.25L300 305.19L310 324.15L320 357.86L330 414.02L340 437.87L350 393.98L360 355.56L370 372.93L380 315.53L390 265.3L400 249.98L410 201.49L420 226L430 233.92L440 287.92L450 353.11L460 339.06L470 359.24L480 367.06L490 418.89L500 374.45L510 425.81L520 366.88L530 372.15L540 319.63L550 332.14L560 326.1L570 261.14L580 313.15L590 321.64L600 373.57L610 396.05L620 431.42L630 408.81L640 353.22L650 339.7L660 360.46L670 393.16L680 457.52L690 426.14L700 431.06L710 382.3L720 395.54L730 423.15L740 428.51L750 358.78L760 404.34L770 388.21L780 431.73L790 448.54L800 462.64L810 420.93L820 417.31L830 396.35L840 464.12L850 400.15L860 339.56L870 319.45L880 259.51L890 220.98L900 255.93L910 294.23L920 251.17L930 273.57L940 223.42L950 155.74L960 103.31L970 111.09L980 102.12L990 47.82L1000 72.97L1010 91.4L1020 76.01L1030 13.37L1040 41.27L1050 55.76L1060 108.72L1070 77.51L1080 74.27L1090 23.23L1100 65.75L1110 82.79L1120 61.94L1130 57.71L1140 32.34L1150 6.45L1160 7.42L1170 66.26L1180 133.27L1190 172.09L1200 165.94L1210 158.64L1220 156.38L1230 102.39L1240 97.72L1250 110.05L1260 86.91L1270 128.1L1280 154.02L1290 156.77L1300 102.03L1310 122.74L1320 97.89L1330 69.02L1340 93.16L1350 67.07L1360 134.91L1370 203.53L1380 190.82L1390 156.71L1400 152.11L1410 194.34L1420 241.6L1430 191.17L1440 178.8" stroke="#224b75" stroke-width="2"></path><path d="M0 159.11L10 171.89L20 181.73L30 197.5L40 166.69L50 186.37L60 253.86L70 207.69L80 172.61L90 125.12L100 177.28L110 170.28L120 141.19L130 207.13L140 197.99L150 157.47L160 179.01L170 211.67L180 178.6L190 236.19L200 194.11L210 226.58L220 270.3L230 279.99L240 234.18L250 262.07L260 236.94L270 261.31L280 314.01L290 356.25L300 305.19L310 324.15L320 357.86L330 414.02L340 437.87L350 393.98L360 355.56L370 372.93L380 315.53L390 265.3L400 249.98L410 201.49L420 226L430 233.92L440 287.92L450 353.11L460 339.06L470 359.24L480 367.06L490 418.89L500 374.45L510 425.81L520 366.88L530 372.15L540 319.63L550 332.14L560 326.1L570 261.14L580 313.15L590 321.64L600 373.57L610 396.05L620 431.42L630 408.81L640 353.22L650 339.7L660 360.46L670 393.16L680 457.52L690 426.14L700 431.06L710 382.3L720 395.54L730 423.15L740 428.51L750 358.78L760 404.34L770 388.21L780 431.73L790 448.54L800 462.64L810 420.93L820 417.31L830 396.35L840 464.12L850 400.15L860 339.56L870 319.45L880 259.51L890 220.98L900 255.93L910 294.23L920 251.17L930 273.57L940 223.42L950 155.74L960 103.31L970 111.09L980 102.12L990 47.82L1000 72.97L1010 91.4L1020 76.01L1030 13.37L1040 41.27L1050 55.76L1060 108.72L1070 77.51L1080 74.27L1090 23.23L1100 65.75L1110 82.79L1120 61.94L1130 57.71L1140 32.34L1150 6.45L1160 7.42L1170 66.26L1180 133.27L1190 172.09L1200 165.94L1210 158.64L1220 156.38L1230 102.39L1240 97.72L1250 110.05L1260 86.91L1270 128.1L1280 154.02L1290 156.77L1300 102.03L1310 122.74L1320 97.89L1330 69.02L1340 93.16L1350 67.07L1360 134.91L1370 203.53L1380 190.82L1390 156.71L1400 152.11L1410 194.34L1420 241.6L1430 191.17L1440 178.8L1440 560L0 560z" fill="url(&quot;#SvgjsLinearGradient1001&quot;)"></path></g><defs><mask id="SvgjsMask1000"><rect width="1440" height="560" fill="#ffffff"></rect></mask><linearGradient x1="50%" y1="0%" x2="50%" y2="100%" id="SvgjsLinearGradient1001"><stop stop-opacity="0.65" stop-color="#224b75" offset="0"></stop><stop stop-opacity="0" stop-color="#508dcc" offset="0.8"></stop></linearGradient></defs></svg>